<?xml version="1.0" encoding="utf-8"?>
<!-- Generator: Adobe Illustrator 15.1.0, SVG Export Plug-In . SVG Version: 6.00 Build 0)  -->
<!DOCTYPE svg PUBLIC "-//W3C//DTD SVG 1.1//EN" "http://www.w3.org/Graphics/SVG/1.1/DTD/svg11.dtd">
<svg version="1.1" id="Layer_1" xmlns="http://www.w3.org/2000/svg" xmlns:xlink="http://www.w3.org/1999/xlink" x="0px" y="0px"
	 width="600px" height="131.98px" viewBox="28.045 0 600 131.98" enable-background="new 28.045 0 600 131.98" xml:space="preserve"
	>
<g>
	<path fill="#C90087" d="M180.694,16.37c-8.01-7.12-19.275-11.041-31.721-11.041c-12.188,0-23.934,4.513-32.227,12.379l-0.686,0.65
		l-0.687-0.65C107.078,9.842,95.333,5.329,83.146,5.329C70.7,5.329,59.435,9.25,51.425,16.37C43.754,23.188,39,30.269,39,44.475
		l0.003,82.568h22.456l0.004-82.568c0-10.858,9.524-19.364,21.684-19.364c12.158,0,21.682,8.505,21.682,19.364l0.002,82.568h22.458
		l0.004-82.568c0-10.858,9.524-19.364,21.681-19.364c12.16,0,21.683,8.505,21.683,19.364l0.004,82.568h22.454l0.006-82.568
		C193.119,30.269,188.365,23.188,180.694,16.37"/>
	<path fill="#C90087" d="M283.27,16.248c-7.615-7.143-18.393-10.918-31.167-10.918c-21.271,0-33.396,12.134-39.229,17.98
		l9.253,16.257l0.047-0.051c5.538-5.999,20.677-19.209,41.58-12.31l0.094,0.036c4.309,1.926,9.443,5.836,9.457,13.526l0.002,0.05
		c0.11,0.965,0.166,1.992,0.166,3.054v6.375l-24.154,4.801c-11.58,2.277-20.951,6.195-27.856,11.644
		c-8.552,6.751-12.889,15.499-12.889,26.006c0,11.12,4.625,20.511,13.377,27.161c7.774,5.906,18.33,9.16,29.723,9.16
		c11.365,0,22.005-3.754,29.961-10.569c8.335-7.14,12.926-17.073,12.926-27.971V43.871C294.56,31.934,291.183,23.674,283.27,16.248
		 M273.473,90.477c0,5.543-1.991,10.631-5.607,14.323c-3.984,4.067-9.656,6.219-16.407,6.219c-4.702,0-13.348-0.914-18.424-7.041
		c-3.953-4.769-4.561-11.69-1.513-17.225c5.391-9.789,17.702-13.48,29.036-15.797l1.251-0.255c2.511-0.508,8.391-1.701,10.469-2.14
		l1.195-0.254V90.477z"/>
	<path fill="#C90087" d="M379.228,15.086c-1.795-1.583-3.695-3.015-5.65-4.258c-4.562-2.9-9.199-4.675-13.786-5.271
		c-8.904-1.154-19.455,0.955-27.537,5.509c-2.594,1.461-4.977,3.205-7.084,5.182c-7.322,6.869-11.29,13.306-11.29,27.623v83.172
		h21.085l0.003-78.643c0-1.883,0-3.768,0.001-5.651c0.002-2.013,0.046-3.83,0.569-5.682c0.85-3.005,2.736-5.813,5.313-7.907
		c1.167-0.948,2.425-1.726,3.739-2.313c8.203-3.404,17.176-1.411,24.202,5.309c9.402-8.755,12.931-12.039,14.286-13.286
		C381.959,17.63,379.686,15.492,379.228,15.086"/>
	<path fill="#C90087" d="M573.061,5.329c-21.271,0-33.395,12.134-39.229,17.98l9.254,16.257l0.047-0.051
		c5.539-5.999,20.679-19.209,41.581-12.31l0.093,0.036c4.311,1.927,9.444,5.837,9.458,13.526l0.002,0.05
		c0.109,0.965,0.165,1.992,0.165,3.054v6.375l-24.154,4.801c-11.581,2.277-20.952,6.195-27.856,11.644
		c-8.553,6.751-12.889,15.5-12.889,26.006c0,11.12,4.625,20.511,13.377,27.161c7.773,5.906,18.329,9.16,29.723,9.16
		c11.365,0,22.005-3.754,29.962-10.569c8.334-7.14,12.925-17.073,12.925-27.971V43.871c0-11.141-3.903-20.693-11.291-27.623
		C596.612,9.105,585.836,5.329,573.061,5.329 M594.431,90.477c0,5.543-1.991,10.631-5.606,14.323
		c-3.984,4.067-9.657,6.219-16.408,6.219c-4.7,0-13.347-0.914-18.424-7.041c-3.953-4.769-4.561-11.69-1.513-17.225
		c5.391-9.789,17.702-13.48,29.035-15.797l1.211-0.246c2.518-0.511,8.421-1.707,10.511-2.148l1.194-0.254V90.477z"/>
	<path fill="#C90087" d="M494.392,62.063c-5.431-2.895-11.088-5.026-17.389-7.317l-0.924-0.334
		c-4.064-1.475-8.261-2.997-12.146-4.96c-4.902-2.475-7.634-5.183-8.598-8.522l-0.031-0.103c-0.844-3.081-0.139-6.385,1.887-8.855
		c1.903-2.32,4.854-4.11,8.768-5.322c1.733-0.536,3.557-0.92,5.418-1.142c6.734-0.807,13.669,0.4,20.053,3.487
		c4.28,2.069,8.306,4.913,11.961,8.448c0.172,0.166,1.669,1.666,2.019,2.071l0.048,0.054l0.03-0.053
		c0.065-0.117,8.684-15.259,9.223-16.206c-5.837-5.848-17.961-17.98-39.229-17.98c-13.155,0-25.069,4.197-32.686,11.515
		c-7.929,7.62-11.025,18.919-8.081,29.489c2.244,8.06,8.662,15.262,18.068,20.281c5.884,3.139,12.344,5.545,17.938,7.555
		l0.709,0.255c4.898,1.758,9.961,3.574,14.411,6.338c5.245,3.259,7.905,7.477,7.905,12.537c0,6.968-5.688,11.861-11.834,14.54
		c-6.847,2.983-14.804,2.017-21.843-0.083c-9.572-2.807-19.247-12.592-19.344-12.691l-9.51,15.982
		c5.842,5.853,17.965,17.969,39.218,17.969c1.723,0,3.481-0.077,5.229-0.232l1.076-0.095v0.029l0.039-0.004
		c9.402-0.951,17.896-4.117,24.562-9.155c8.701-6.574,13.492-15.899,13.492-26.26c0-7.442-2.084-14.192-6.026-19.521
		C505.49,69.3,500.777,65.467,494.392,62.063"/>
	<rect x="394.672" y="7.346" fill="#C90087" width="21.087" height="119.695"/>
</g>
</svg>
